<?xml version="1.0" standalone="no"?>
<!DOCTYPE svg PUBLIC "-//W3C//DTD SVG 20010904//EN"
 "http://www.w3.org/TR/2001/REC-SVG-20010904/DTD/svg10.dtd">
<svg version="1.0" xmlns="http://www.w3.org/2000/svg"
 width="1890.000000pt" height="1891.000000pt" viewBox="0 0 1890.000000 1891.000000"
 preserveAspectRatio="xMidYMid meet">

<g transform="translate(0.000000,1891.000000) scale(0.100000,-0.100000)"
fill="#000000" stroke="none">
<path d="M0 9455 l0 -9455 9450 0 9450 0 0 9455 0 9455 -9450 0 -9450 0 0
-9455z m10570 7439 c46 -22 1904 -1871 4992 -4969 l1295 -1300 27 -75 27 -75
-3 -1050 -3 -1050 -22 -40 c-13 -24 -1291 -1309 -3137 -3155 -2866 -2866
-3121 -3117 -3178 -3145 l-63 -30 -1055 -3 c-949 -2 -1059 -1 -1105 14 -47 15
-237 203 -3182 3148 -2606 2604 -3136 3139 -3153 3178 -20 47 -20 61 -18 1130
l3 1083 24 47 c17 33 103 126 280 300 141 139 1545 1537 3120 3107 1575 1571
2872 2862 2882 2869 59 41 45 41 1159 39 1059 -2 1065 -2 1110 -23z"/>
<path d="M8571 16449 c-23 -4 -63 -20 -87 -34 -27 -16 -1220 -1202 -2952
-2933 -1599 -1599 -2922 -2918 -2940 -2932 l-33 -25 2925 -2925 2925 -2924
288 284 c158 156 317 312 353 347 l65 63 -2578 2578 -2578 2578 2960 2960
c1629 1629 2961 2964 2961 2967 0 10 -1258 6 -1309 -4z"/>
<path d="M7583 13428 c-1608 -1608 -2923 -2927 -2923 -2931 0 -7 611 -620 669
-671 l22 -20 2142 2141 c1178 1177 2338 2334 2577 2571 l435 431 2963 -2962
2962 -2962 -2 675 -3 675 -29 52 c-21 39 -753 775 -2925 2945 -1593 1591
-2912 2912 -2931 2936 l-35 42 -2922 -2922z"/>
<path d="M10132 13888 l-352 -353 2572 -2573 2573 -2573 -410 -406 c-509 -505
-5483 -5472 -5509 -5502 l-20 -22 675 3 674 3 55 24 c49 21 356 325 2993 2960
1615 1615 2937 2940 2937 2946 0 5 -1313 1323 -2918 2928 l-2917 2917 -353
-352z"/>
<path d="M7577 11342 l-1877 -1877 1878 -1878 1877 -1877 1877 1877 1877 1878
-1875 1878 c-1031 1032 -1876 1877 -1877 1877 -1 0 -847 -845 -1880 -1878z"/>
<path d="M2452 9235 l3 -660 35 -68 c32 -62 251 -284 2585 -2625 1402 -1406
2719 -2728 2927 -2937 l378 -380 2927 2927 2926 2926 -346 349 -347 348 -1052
-1055 c-579 -580 -1735 -1740 -2569 -2578 -834 -837 -1520 -1522 -1525 -1522
-5 0 -1344 1335 -2977 2968 l-2967 2967 2 -660z"/>
</g>
</svg>
