<svg id="svg" version="1.1" xmlns="http://www.w3.org/2000/svg" xmlns:xlink="http://www.w3.org/1999/xlink" width="400" height="400" viewBox="0, 0, 400,400"><g id="svgg"><path id="path0" d="M281.057 201.670 C 280.604 202.008,263.203 219.323,242.389 240.149 C 215.810 266.744,204.345 278.081,203.871 278.237 C 203.388 278.397,203.131 278.656,202.969 279.147 C 202.675 280.039,196.529 286.146,195.735 286.335 C 195.340 286.429,195.102 286.677,194.942 287.162 C 194.639 288.079,182.593 300.101,181.789 300.289 C 181.408 300.378,181.184 300.605,181.085 301.002 C 180.928 301.634,174.187 308.579,173.528 308.788 C 172.803 309.018,173.171 309.539,176.352 312.795 C 179.902 316.427,180.682 317.029,181.560 316.817 C 182.147 316.675,287.754 211.354,289.028 209.641 C 290.084 208.220,290.013 208.084,286.308 204.384 C 282.606 200.687,282.472 200.618,281.057 201.670 M303.377 223.390 C 303.089 223.580,275.740 250.837,242.600 283.961 C 185.731 340.802,182.304 344.186,181.617 344.186 C 180.938 344.186,180.176 343.477,170.413 333.749 C 159.479 322.855,159.110 322.520,158.911 323.313 C 158.792 323.786,152.901 329.714,152.120 330.147 C 151.505 330.487,151.784 330.785,166.633 345.592 L 179.810 358.731 180.973 358.976 C 183.187 359.444,226.352 359.186,227.273 358.700 C 228.052 358.289,331.735 254.824,332.791 253.404 C 333.846 251.985,333.755 251.795,330.395 248.425 C 327.192 245.211,326.767 244.916,325.846 245.258 C 325.523 245.378,302.710 268.021,274.524 296.197 C 238.212 332.498,223.561 347.012,222.998 347.244 C 221.607 347.819,198.675 347.723,198.092 347.141 C 197.738 346.787,197.706 346.632,197.903 346.243 C 198.034 345.984,223.719 320.180,254.980 288.901 C 287.130 256.733,311.915 231.774,312.039 231.441 C 312.388 230.500,311.992 229.958,308.337 226.374 C 304.748 222.855,304.454 222.678,303.377 223.390 " stroke="none" fill="#fc2474" fill-rule="evenodd"></path><path id="path1" d="M254.627 70.858 C 252.076 72.764,248.626 76.683,248.626 77.673 C 248.626 78.261,253.738 83.440,299.464 129.174 C 335.831 165.548,350.394 180.245,350.627 180.807 C 351.013 181.742,351.122 204.386,350.745 205.377 C 350.188 206.842,353.291 209.842,292.283 148.837 C 240.914 97.470,235.133 91.755,234.544 91.755 C 233.024 91.755,226.427 98.349,226.427 99.869 C 226.427 100.462,232.344 106.444,286.880 160.992 C 327.273 201.393,347.379 221.645,347.469 222.020 C 347.693 222.950,347.459 223.212,337.199 233.510 C 326.829 243.917,326.685 244.089,327.380 245.192 C 328.445 246.884,333.393 251.374,334.192 251.374 C 335.132 251.374,361.368 225.505,362.174 223.784 C 362.730 222.596,362.807 178.127,362.255 176.790 C 361.900 175.932,257.474 71.273,256.406 70.705 C 255.637 70.296,255.344 70.321,254.627 70.858 M210.220 115.190 C 208.637 116.448,204.677 120.649,204.533 121.222 C 204.462 121.504,204.531 121.975,204.686 122.269 C 205.146 123.142,312.013 230.004,312.564 230.142 C 313.373 230.345,314.112 229.793,317.160 226.709 C 320.208 223.625,320.546 223.073,320.010 222.063 C 319.225 220.585,212.609 114.376,211.910 114.376 C 211.454 114.376,210.919 114.634,210.220 115.190 " stroke="none" fill="#048cfc" fill-rule="evenodd"></path><path id="path2" d="M71.989 149.681 C 70.857 150.581,46.319 175.199,45.557 176.199 L 44.926 177.028 44.863 199.772 C 44.817 216.173,44.866 222.752,45.038 223.362 C 45.260 224.151,148.968 328.355,151.014 329.845 C 151.911 330.498,152.403 330.177,155.889 326.663 C 158.454 324.077,158.985 323.435,158.985 322.925 C 158.985 322.387,152.512 315.835,108.042 271.355 C 71.609 234.916,57.006 220.178,56.773 219.616 C 56.387 218.681,56.277 196.038,56.654 195.045 C 57.211 193.581,54.105 190.578,115.115 251.561 C 175.321 311.741,172.736 309.210,173.566 308.772 C 174.519 308.270,180.928 301.634,181.091 300.981 C 181.235 300.401,178.749 297.883,120.536 239.669 C 60.167 179.298,59.831 178.958,59.831 178.125 C 59.831 177.302,60.007 177.111,69.979 167.125 C 82.249 154.837,81.373 156.583,77.326 152.484 C 73.651 148.764,73.346 148.603,71.989 149.681 M93.748 170.508 C 92.350 171.115,87.104 176.802,87.104 177.711 C 87.104 178.532,87.620 179.056,141.093 232.530 L 195.082 286.520 195.808 286.281 C 196.788 285.957,202.841 279.854,203.050 278.978 C 203.212 278.303,96.192 170.875,94.915 170.429 C 94.547 170.301,94.165 170.327,93.748 170.508 " stroke="none" fill="#fcc404" fill-rule="evenodd"></path><path id="path3" d="M180.233 41.831 C 179.527 42.152,72.516 148.752,72.516 149.134 C 72.516 149.182,72.695 149.174,72.914 149.116 C 74.132 148.798,80.224 154.837,80.091 156.230 C 80.011 157.071,81.285 155.817,131.918 105.202 L 183.827 53.312 185.020 53.073 C 185.845 52.907,189.701 52.853,197.514 52.897 C 209.572 52.964,209.514 52.959,209.514 53.988 C 209.514 54.303,192.193 71.761,151.427 112.535 C 119.479 144.489,93.578 170.545,93.869 170.438 C 94.791 170.100,95.344 170.521,99.864 175.009 C 102.289 177.417,104.160 179.164,104.021 178.892 C 103.883 178.619,103.830 178.143,103.905 177.834 C 104.058 177.199,223.999 57.067,225.023 56.523 C 226.157 55.921,226.369 56.100,236.681 66.375 C 242.146 71.820,246.835 76.386,247.101 76.522 C 247.909 76.932,248.409 76.601,251.336 73.711 C 254.318 70.766,254.864 70.034,254.641 69.281 C 254.419 68.532,228.160 42.308,227.167 41.843 C 225.871 41.236,181.566 41.225,180.233 41.831 M171.645 137.551 L 117.812 191.381 116.936 191.298 L 116.059 191.214 121.083 196.241 C 123.846 199.006,126.123 201.268,126.143 201.268 C 126.163 201.268,126.079 201.003,125.956 200.678 C 125.788 200.232,125.805 199.952,126.027 199.531 C 126.189 199.225,150.400 174.868,179.830 145.404 C 215.575 109.618,233.386 91.645,233.481 91.264 C 233.805 89.974,227.857 83.721,226.306 83.721 C 225.487 83.721,224.939 84.260,171.645 137.551 " stroke="none" fill="#3cdc04" fill-rule="evenodd"></path><path id="path4" d="M0.000 200.000 L 0.000 400.000 200.000 400.000 L 400.000 400.000 400.000 200.000 L 400.000 0.000 200.000 0.000 L 0.000 0.000 0.000 200.000 M227.167 41.843 C 228.160 42.308,254.419 68.532,254.641 69.281 C 254.864 70.034,254.318 70.766,251.336 73.711 C 248.409 76.601,247.909 76.932,247.101 76.522 C 246.835 76.386,242.146 71.820,236.681 66.375 C 226.369 56.100,226.157 55.921,225.023 56.523 C 224.003 57.064,104.058 177.199,103.906 177.831 C 103.679 178.771,104.187 179.377,110.300 185.465 C 116.021 191.163,116.215 191.332,117.026 191.332 C 117.856 191.332,118.220 190.974,171.670 137.526 C 224.940 84.260,225.487 83.721,226.306 83.721 C 227.857 83.721,233.805 89.974,233.481 91.264 C 233.386 91.645,215.577 109.614,179.830 145.400 C 150.400 174.861,126.188 199.240,126.026 199.574 C 125.790 200.059,125.780 200.305,125.979 200.785 C 126.116 201.117,143.570 218.728,164.764 239.922 L 203.299 278.457 203.922 278.225 C 204.299 278.085,219.727 262.820,242.918 239.643 C 272.127 210.450,281.441 201.260,281.924 201.156 C 282.273 201.081,282.653 200.991,282.770 200.956 C 282.886 200.921,265.362 183.258,243.828 161.704 C 216.845 134.697,204.631 122.335,204.534 121.933 C 204.213 120.606,210.294 114.376,211.910 114.376 C 212.649 114.376,319.584 220.989,320.103 222.244 C 320.498 223.197,320.080 223.810,316.847 227.014 C 313.818 230.017,313.119 230.480,312.285 230.033 C 311.876 229.815,311.860 229.836,312.049 230.332 C 312.181 230.681,312.177 231.069,312.036 231.448 C 311.916 231.771,286.586 257.278,254.980 288.901 C 223.719 320.180,198.034 345.984,197.903 346.243 C 197.706 346.632,197.738 346.787,198.092 347.141 C 198.675 347.723,221.607 347.819,222.998 347.244 C 223.561 347.012,238.212 332.498,274.524 296.197 C 302.710 268.021,325.523 245.378,325.846 245.258 C 326.225 245.117,326.613 245.113,326.961 245.245 C 327.458 245.434,327.479 245.418,327.261 245.009 C 326.754 244.062,327.206 243.539,337.199 233.510 C 347.459 223.212,347.693 222.950,347.469 222.020 C 347.379 221.645,327.273 201.393,286.880 160.992 C 232.344 106.444,226.427 100.462,226.427 99.869 C 226.427 98.349,233.024 91.755,234.544 91.755 C 235.133 91.755,240.914 97.470,292.283 148.837 C 353.291 209.842,350.188 206.842,350.745 205.377 C 351.122 204.386,351.013 181.742,350.627 180.807 C 350.394 180.245,335.831 165.548,299.464 129.174 C 253.738 83.440,248.626 78.261,248.626 77.673 C 248.626 76.773,249.395 75.791,252.286 72.997 C 254.904 70.469,255.415 70.180,256.373 70.688 C 257.462 71.266,361.893 175.914,362.255 176.790 C 362.807 178.127,362.730 222.596,362.174 223.784 C 361.905 224.359,357.477 228.923,348.380 238.002 C 334.015 252.339,334.324 252.071,333.235 251.163 C 333.050 251.009,333.039 251.021,333.192 251.205 C 333.577 251.667,333.412 252.568,332.791 253.404 C 331.735 254.824,228.052 358.289,227.273 358.700 C 226.356 359.184,183.198 359.444,180.973 358.979 L 179.810 358.736 165.770 344.643 C 158.049 336.892,151.675 330.495,151.605 330.427 C 139.707 318.820,45.542 224.395,45.235 223.763 C 44.820 222.910,44.814 222.509,44.869 199.962 L 44.926 177.028 45.554 176.199 C 46.972 174.326,179.387 42.218,180.233 41.832 C 181.565 41.225,225.869 41.235,227.167 41.843 M184.778 53.099 C 183.182 53.450,59.831 176.872,59.831 178.118 C 59.831 178.960,59.992 179.123,120.578 239.710 L 181.324 300.458 182.047 300.145 C 182.977 299.741,194.612 288.066,194.927 287.220 L 195.159 286.597 141.131 232.568 C 87.300 178.735,87.104 178.536,87.104 177.696 C 87.104 176.856,87.307 176.649,148.309 115.644 C 191.249 72.701,209.514 54.302,209.514 53.988 C 209.514 52.955,209.598 52.962,197.272 52.925 C 190.297 52.903,185.353 52.972,184.778 53.099 M56.654 195.045 C 56.277 196.038,56.387 218.681,56.773 219.616 C 57.005 220.177,71.674 235.003,108.067 271.459 C 136.100 299.540,159.143 322.627,159.275 322.763 C 167.221 330.986,180.989 344.186,181.618 344.186 C 182.302 344.186,185.817 340.713,242.810 283.733 C 288.987 237.567,303.427 223.248,303.911 223.144 C 304.260 223.069,304.641 222.979,304.757 222.944 C 304.873 222.909,301.554 219.469,297.380 215.299 C 289.805 207.730,289.791 207.718,289.642 208.380 C 289.560 208.744,289.294 209.315,289.052 209.648 C 287.957 211.152,182.107 316.685,181.560 316.817 C 180.673 317.031,179.882 316.412,176.351 312.740 C 174.589 310.907,173.029 309.301,172.885 309.170 C 172.740 309.038,146.839 283.185,115.326 251.717 C 54.098 190.576,57.211 193.582,56.654 195.045 " stroke="none" fill="#1c344c" fill-rule="evenodd"></path></g></svg>